<svg xmlns="http://www.w3.org/2000/svg" width="45.341" height="45.341" viewBox="0 0 45.341 45.341">
  <path id="move" d="M31.349,5.313A5.319,5.319,0,0,0,26.036,0H5.313A5.319,5.319,0,0,0,0,5.313V26.036a5.319,5.319,0,0,0,5.313,5.313h8.5v3.542h3.542V31.349h8.679a5.319,5.319,0,0,0,5.313-5.313v-8.5H34.8V13.992H31.349ZM27.807,26.036a1.773,1.773,0,0,1-1.771,1.771H5.313a1.773,1.773,0,0,1-1.771-1.771V5.313A1.773,1.773,0,0,1,5.313,3.542H26.036a1.773,1.773,0,0,1,1.771,1.771ZM41.8,38.257h3.542V41.8A3.542,3.542,0,0,1,41.8,45.341H38.345V41.8H41.8ZM24.176,41.8h3.542v3.542H24.176Zm7.085,0H34.8v3.542H31.261ZM45.341,17.534v3.542H41.8V17.534H38.345V13.992H41.8A3.542,3.542,0,0,1,45.341,17.534ZM41.8,24.442h3.542v3.542H41.8Zm0,6.907h3.542v3.542H41.8ZM17.357,41.8h3.454v3.542H17.357A3.542,3.542,0,0,1,13.815,41.8V38.257h3.542Zm3.277-28.161h3.542V24.265H13.549V20.722h4.58L11.81,14.4l2.5-2.5,6.319,6.319Zm0,0" fill="#0c5081"/>
</svg>
